<svg width="68" height="20" viewBox="0 0 68 20" fill="none" xmlns="http://www.w3.org/2000/svg">
<path d="M17.6 19.4C16.96 19.4 16.36 19.32 15.8 19.16C15.24 19.0267 14.72 18.7867 14.24 18.44C14.08 18.28 13.8267 18.04 13.48 17.72C13.16 17.4 12.8 17.04 12.4 16.64C12 16.2133 11.5867 15.7867 11.16 15.36C10.76 14.9333 10.3867 14.5467 10.04 14.2C9.69333 13.8267 9.41333 13.52 9.2 13.28C8.88 12.96 8.6 12.72 8.36 12.56C8.14667 12.3733 7.84 12.2 7.44 12.04L6 11.8V19H0.68V2.28C0.68 1.90667 0.706667 1.6 0.76 1.36C0.84 1.12 0.986667 0.933336 1.2 0.800003C1.44 0.666669 1.84 0.600003 2.4 0.600003C3.01333 0.600003 3.61333 0.600003 4.2 0.600003C4.81333 0.600003 5.41333 0.600003 6 0.600003C6 1 6 1.50667 6 2.12C6 2.73334 6 3.38667 6 4.08C6 4.77334 6 5.42667 6 6.04C6 6.65334 6 7.14667 6 7.52L7.48 7.32C7.74667 7.24 7.97333 7.13334 8.16 7C8.34667 6.86667 8.56 6.66667 8.8 6.4C9.22667 5.94667 9.73333 5.44 10.32 4.88C10.9067 4.29334 11.52 3.69334 12.16 3.08C12.8 2.46667 13.3733 1.92 13.88 1.44C14.3867 1.04 14.9333 0.773335 15.52 0.640002C16.1067 0.506669 16.8133 0.440002 17.64 0.440002C18.2533 0.440002 18.7733 0.466669 19.2 0.520003C19.6267 0.573336 20.0667 0.653336 20.52 0.760002C20.4667 0.786669 20.2933 0.946669 20 1.24C19.7067 1.53334 19.3733 1.85334 19 2.2C18.6533 2.54667 18.3733 2.82667 18.16 3.04C17.28 3.73334 16.36 4.46667 15.4 5.24C14.44 5.98667 13.5067 6.74667 12.6 7.52C11.6933 8.26667 10.88 8.98667 10.16 9.68L10.24 8.28C10.8267 8.73334 11.52 9.32 12.32 10.04C13.12 10.76 14 11.5733 14.96 12.48C15.9467 13.36 16.96 14.2667 18 15.2C19.04 16.1333 20.0667 17.04 21.08 17.92C20.9733 18.0533 20.76 18.24 20.44 18.48C20.1467 18.72 19.76 18.9333 19.28 19.12C18.8 19.3067 18.24 19.4 17.6 19.4Z" fill="black"/>
<path d="M24.2347 19V2.64C24.2347 1.78667 24.3414 1.24 24.5547 1C24.768 0.733336 25.3014 0.600003 26.1547 0.600003H31.1147L40.9547 13.56L41.1547 14.2V0.600003H45.0747C45.048 0.653335 45.0214 0.800002 44.9947 1.04C44.968 1.28 44.9547 1.54667 44.9547 1.84C44.9547 2.13334 44.9547 2.38667 44.9547 2.6V17.2C44.9547 18.0267 44.808 18.5333 44.5147 18.72C44.2214 18.9067 43.648 19 42.7947 19H38.2347L28.2347 5.8L28.0747 5.12V19H24.2347Z" fill="black"/>
<path d="M55.7656 0.600003V16.16H67.7256V19H50.4456V2.48C50.4456 2.05334 50.4723 1.70667 50.5256 1.44C50.579 1.14667 50.7256 0.933336 50.9656 0.800003C51.2056 0.666669 51.6323 0.600003 52.2456 0.600003H55.7656Z" fill="black"/>
</svg>
